<svg xmlns="http://www.w3.org/2000/svg" viewBox="0 0 216 216" role="img" aria-label="Abel Tree Farm logo mark">
  <path fill="#d8b97c" d="M135.5 10 L132.5 10 L115.5 27 L99.5 30 L80.5 30 L73.5 33 L68.5 38 L67.5 47 L69.5 51 L81.5 56 L83.5 58 L83.5 62 L66.5 106 L64.5 108 L64.5 111 L38.5 178 L33.5 185 L15.5 191 L15.5 205 L93.5 205 L93.5 189 L84.5 186 L78.5 182 L78.5 138 L97.5 136 L97.5 113 L88.5 111 L100.5 85 L112.5 110 L111.5 112 L105.5 112 L103.5 114 L103.5 136 L121.5 137 L123.5 141 L123.5 181 L121.5 185 L107.5 191 L107.5 205 L199.5 205 L199.5 191 L182.5 185 L178.5 178 L158.5 101 L158.5 97 L148.5 59 L148.5 52 L142.5 30 Z"/>
</svg>
